<svg width="1342" height="66" viewBox="0 0 1342 66" fill="none" xmlns="http://www.w3.org/2000/svg">
<path d="M1338 28.25H4C1.79086 28.25 0 30.0409 0 32.25C0 34.4591 1.79086 36.25 4 36.25H1338C1340.21 36.25 1342 34.4591 1342 32.25C1342 30.0409 1340.21 28.25 1338 28.25Z" fill="#055B05"/>
<path d="M1340.34 28H787.657C786.742 28 786 29.7909 786 32C786 34.2091 786.742 36 787.657 36H1340.34C1341.26 36 1342 34.2091 1342 32C1342 29.7909 1341.26 28 1340.34 28Z" fill="#363630"/>
<path d="M154.156 0H114C108.477 0 104 4.47715 104 10V55.5C104 61.0228 108.477 65.5 114 65.5H154.156C159.679 65.5 164.156 61.0228 164.156 55.5V10C164.156 4.47715 159.679 0 154.156 0Z" fill="#055B05"/>
<path d="M368.156 0H328C322.477 0 318 4.47715 318 10V55.5C318 61.0228 322.477 65.5 328 65.5H368.156C373.679 65.5 378.156 61.0228 378.156 55.5V10C378.156 4.47715 373.679 0 368.156 0Z" fill="#055B05"/>
<path d="M583.156 0H543C537.477 0 533 4.47715 533 10V55.5C533 61.0228 537.477 65.5 543 65.5H583.156C588.679 65.5 593.156 61.0228 593.156 55.5V10C593.156 4.47715 588.679 0 583.156 0Z" fill="#055B05"/>
<path d="M797.16 0H757C751.477 0 747 4.47715 747 10V55.5C747 61.0228 751.477 65.5 757 65.5H797.16C802.683 65.5 807.16 61.0228 807.16 55.5V10C807.16 4.47715 802.683 0 797.16 0Z" fill="#363630"/>
<path d="M1012.16 0H972C966.477 0 962 4.47715 962 10V55.5C962 61.0228 966.477 65.5 972 65.5H1012.16C1017.68 65.5 1022.16 61.0228 1022.16 55.5V10C1022.16 4.47715 1017.68 0 1012.16 0Z" fill="#363630"/>
<path d="M1226.16 0H1186C1180.48 0 1176 4.47715 1176 10V55.5C1176 61.0228 1180.48 65.5 1186 65.5H1226.16C1231.68 65.5 1236.16 61.0228 1236.16 55.5V10C1236.16 4.47715 1231.68 0 1226.16 0Z" fill="#363630"/>
</svg>
